<svg width="9" height="10" viewBox="0 0 9 10" fill="none" xmlns="http://www.w3.org/2000/svg">
<path d="M8.26224 9.10983C8.5732 9.11558 8.82994 8.86817 8.83569 8.55721L8.92943 3.48994C8.93518 3.17899 8.68777 2.92225 8.37681 2.9165C8.06586 2.91075 7.80912 3.15816 7.80337 3.46911L7.72005 7.97335L3.21581 7.89003C2.90485 7.88428 2.64811 8.13169 2.64236 8.44265C2.63661 8.7536 2.88402 9.01034 3.19498 9.01609L8.26224 9.10983ZM0.594513 1.39076L6.82822 7.85944L7.6392 7.07793L1.40549 0.609242L0.594513 1.39076ZM6.82822 7.85944L7.86717 8.93756L8.67815 8.15604L7.6392 7.07793L6.82822 7.85944Z" fill="black"/>
</svg>
