<svg width="11" height="11" viewBox="0 0 11 11" fill="none" xmlns="http://www.w3.org/2000/svg">
<path d="M9.4242 10.2477C9.78491 10.2544 10.0827 9.96741 10.0894 9.6067L10.1981 3.72867C10.2048 3.36796 9.91781 3.07014 9.5571 3.06347C9.1964 3.0568 8.89858 3.3438 8.89191 3.7045L8.79525 8.92942L3.57033 8.83277C3.20963 8.8261 2.91181 9.1131 2.90514 9.4738C2.89847 9.83451 3.18547 10.1323 3.54617 10.139L9.4242 10.2477ZM0.529635 1.29361L7.76074 8.79728L8.70147 7.89073L1.47036 0.387053L0.529635 1.29361ZM7.76074 8.79728L8.96592 10.0479L9.90665 9.14134L8.70147 7.89073L7.76074 8.79728Z" fill="#F3F3F1"/>
</svg>
