<svg width="7" height="8" viewBox="0 0 7 8" fill="none" xmlns="http://www.w3.org/2000/svg">
<path d="M5.71876 7.08098C6.02147 7.08657 6.27166 6.83099 6.27759 6.51012L6.37415 1.28129C6.38007 0.960421 6.13949 0.695775 5.83678 0.690185C5.53408 0.684595 5.28388 0.940178 5.27796 1.26105L5.19212 5.9089L0.80736 5.82792C0.504655 5.82233 0.25446 6.07791 0.248535 6.39878C0.242609 6.71965 0.483197 6.9843 0.785902 6.98989L5.71876 7.08098ZM0.334343 1.40366L4.62006 6.11794L5.41035 5.31063L1.12464 0.596341L0.334343 1.40366ZM4.62006 6.11794L5.33434 6.90366L6.12464 6.09634L5.41035 5.31063L4.62006 6.11794Z" fill="black"/>
</svg>
