<svg width="10" height="12" viewBox="0 0 10 12" fill="none" xmlns="http://www.w3.org/2000/svg">
<path d="M9.35355 7.85355C9.54882 7.65829 9.54882 7.34171 9.35355 7.14645L6.17157 3.96447C5.97631 3.7692 5.65973 3.7692 5.46447 3.96447C5.2692 4.15973 5.2692 4.47631 5.46447 4.67157L8.29289 7.5L5.46447 10.3284C5.2692 10.5237 5.2692 10.8403 5.46447 11.0355C5.65973 11.2308 5.97631 11.2308 6.17157 11.0355L9.35355 7.85355ZM1 7.5L0.5 7.5V8H1V7.5ZM0.5 0V7.5L1.5 7.5V0L0.5 0ZM1 8H9V7H1V8Z" fill="white"/>
</svg>
